HIERARCHY
ROOT Hips
{
	OFFSET 0.00000 0.00000 0.00000
	CHANNELS 6 Xposition Yposition Zposition Zrotation Yrotation Xrotation 
	JOINT LHipJoint
	{
		OFFSET 0 0 0
		CHANNELS 3 Zrotation Yrotation Xrotation
		JOINT LeftUpLeg
		{
			OFFSET 1.85590 -1.73949 0.84976
			CHANNELS 3 Zrotation Yrotation Xrotation
			JOINT LeftLeg
			{
				OFFSET 2.36836 -6.50702 0.00000
				CHANNELS 3 Zrotation Yrotation Xrotation
				JOINT LeftFoot
				{
					OFFSET 2.53268 -6.95849 0.00000
					CHANNELS 3 Zrotation Yrotation Xrotation
					JOINT LeftToeBase
					{
						OFFSET 0.15935 -0.43781 1.94506
						CHANNELS 3 Zrotation Yrotation Xrotation
						End Site
						{
							OFFSET 0.00000 -0.00000 1.00661
						}
					}
				}
			}
		}
	}
	JOINT RHipJoint
	{
		OFFSET 0 0 0
		CHANNELS 3 Zrotation Yrotation Xrotation
		JOINT RightUpLeg
		{
			OFFSET -1.68297 -1.73949 0.84976
			CHANNELS 3 Zrotation Yrotation Xrotation
			JOINT RightLeg
			{
				OFFSET -2.44709 -6.72334 0.00000
				CHANNELS 3 Zrotation Yrotation Xrotation
				JOINT RightFoot
				{
					OFFSET -2.43843 -6.69953 0.00000
					CHANNELS 3 Zrotation Yrotation Xrotation
					JOINT RightToeBase
					{
						OFFSET -0.20854 -0.57295 2.02172
						CHANNELS 3 Zrotation Yrotation Xrotation
						End Site
						{
							OFFSET -0.00000 -0.00000 1.05594
						}
					}
				}
			}
		}
	}
	JOINT LowerBack
	{
		OFFSET 0 0 0
		CHANNELS 3 Zrotation Yrotation Xrotation
		JOINT Spine
		{
			OFFSET -0.01560 2.23971 -0.03712
			CHANNELS 3 Zrotation Yrotation Xrotation
			JOINT Spine1
			{
				OFFSET 0.05490 2.19225 -0.19086
				CHANNELS 3 Zrotation Yrotation Xrotation
				JOINT Neck
				{
					OFFSET 0 0 0
					CHANNELS 3 Zrotation Yrotation Xrotation
					JOINT Neck1
					{
						OFFSET -0.12403 1.43168 0.27585
						CHANNELS 3 Zrotation Yrotation Xrotation
						JOINT Head
						{
							OFFSET 0.17855 1.46173 -0.32578
							CHANNELS 3 Zrotation Yrotation Xrotation
							End Site
							{
								OFFSET 0.07217 1.51590 -0.14537
							}
						}
					}
				}
				JOINT LeftShoulder
				{
					OFFSET 0 0 0
					CHANNELS 3 Zrotation Yrotation Xrotation
					JOINT LeftArm
					{
						OFFSET 3.27650 0.85634 0.05396
						CHANNELS 3 Zrotation Yrotation Xrotation
						JOINT LeftForeArm
						{
							OFFSET 4.96755 -0.00000 0.00000
							CHANNELS 3 Zrotation Yrotation Xrotation
							JOINT LeftHand
							{
								OFFSET 3.35751 -0.00000 0.00000
								CHANNELS 3 Zrotation Yrotation Xrotation
								JOINT LeftFingerBase
								{
									OFFSET 0 0 0
									CHANNELS 3 Zrotation Yrotation Xrotation
									JOINT LeftHandIndex1
									{
										OFFSET 0.79697 -0.00000 0.00000
										CHANNELS 3 Zrotation Yrotation Xrotation
										End Site
										{
											OFFSET 0.64254 -0.00000 0.00000
										}
									}
								}
								JOINT LThumb
								{
									OFFSET 0 0 0
									CHANNELS 3 Zrotation Yrotation Xrotation
									End Site
									{
										OFFSET 0.65235 -0.00000 0.65235
									}
								}
							}
						}
					}
				}
				JOINT RightShoulder
				{
					OFFSET 0 0 0
					CHANNELS 3 Zrotation Yrotation Xrotation
					JOINT RightArm
					{
						OFFSET -3.24434 1.02034 0.34688
						CHANNELS 3 Zrotation Yrotation Xrotation
						JOINT RightForeArm
						{
							OFFSET -5.21859 -0.00000 -0.00000
							CHANNELS 3 Zrotation Yrotation Xrotation
							JOINT RightHand
							{
								OFFSET -3.36504 -0.00000 0.00000
								CHANNELS 3 Zrotation Yrotation Xrotation
								JOINT RightFingerBase
								{
									OFFSET 0 0 0
									CHANNELS 3 Zrotation Yrotation Xrotation
									JOINT RightHandIndex1
									{
										OFFSET -0.62044 -0.00000 0.00000
										CHANNELS 3 Zrotation Yrotation Xrotation
										End Site
										{
											OFFSET -0.50022 -0.00000 0.00000
										}
									}
								}
								JOINT RThumb
								{
									OFFSET 0 0 0
									CHANNELS 3 Zrotation Yrotation Xrotation
									End Site
									{
										OFFSET -0.50786 -0.00000 0.50786
									}
								}
							}
						}
					}
				}
			}
		}
	}
}
MOTION
Frames: 6
Frame Time: .0083333
8.9800 16.6378 -2.0370 -5.3594 -2.2009 7.1079 0.0000 0.0000 0.0000 -5.7625 -11.8560 -39.3517 1.0068 6.3845 17.9042 0.0925 8.6489 -13.9404 0.7688 -5.5990 -15.6252 0.0000 0.0000 0.0000 30.5438 0.7009 10.1459 -0.0846 -1.8758 5.1625 -0.8592 4.9799 -16.5494 -0.7710 5.6066 -15.6472 1.0262 1.4022 -6.2344 2.9723 1.6931 -0.1239 2.6469 0.8368 3.3083 -13.6061 -6.2967 -20.3375 14.7387 -8.2291 20.2943 6.4004 -3.1372 11.1708 -0.0000 -0.0000 0.0000 -87.9267 16.9181 26.9294 10.9662 -18.2365 -1.7653 -0.0000 -0.0000 3.1209 10.4668 -24.0828 -4.3110 -7.1250 0.0000 -0.0000 -11.5935 5.9516 10.5524 -0.0000 -0.0000 0.0000 75.8787 -5.9758 44.3733 -33.0592 43.3755 -13.4627 0.0000 -0.0000 -27.7318 -36.1706 -27.9589 18.9201 7.1250 -0.0000 -0.0000 -7.3549 -63.1595 3.2508
9.0140 16.6143 -1.8754 -5.6408 -2.3685 7.1083 0.0000 0.0000 0.0000 -5.5122 -11.9434 -39.3696 1.0204 6.4263 18.0264 0.0679 8.6814 -13.5794 0.6398 -5.1174 -14.2437 0.0000 0.0000 0.0000 30.5804 0.1384 11.9461 -0.0238 -0.9965 2.7391 -0.7299 4.3923 -15.2548 -0.8281 5.8058 -16.2219 1.3394 1.4258 -6.4028 3.0456 1.6911 -0.0456 2.5542 0.8391 3.4910 -13.5700 -6.2984 -20.5213 14.9539 -8.2854 20.3542 6.4715 -3.1284 11.2490 -0.0000 -0.0000 0.0000 -88.2265 16.9864 26.6930 11.1486 -18.5157 -1.8228 -0.0000 -0.0000 2.8573 10.0973 -23.3428 -4.0361 -7.1250 0.0000 -0.0000 -11.8013 6.7216 10.5712 -0.0000 -0.0000 0.0000 75.9926 -5.9689 44.5104 -32.8313 43.2000 -13.3065 0.0000 -0.0000 -27.3439 -34.8190 -25.6822 16.7738 7.1250 -0.0000 -0.0000 -6.0648 -60.2379 2.2592
9.0486 16.6008 -1.7098 -5.6719 -2.5971 7.1067 0.0000 0.0000 0.0000 -5.8369 -11.5914 -39.4093 1.0408 6.4883 18.2080 0.1150 7.8872 -13.3743 0.6565 -5.1824 -14.4295 0.0000 0.0000 0.0000 30.2596 -0.4459 13.9566 0.0000 0.0000 -0.0000 -0.6008 4.1184 -13.8223 -0.8120 5.7505 -16.0623 1.4653 1.4980 -6.5677 2.9891 1.7740 -0.0395 2.4382 0.8825 3.5928 -13.3790 -6.2693 -20.5696 14.8758 -8.2852 20.3977 6.4091 -3.1194 11.2611 0.0000 -0.0000 0.0000 -88.2843 17.0379 27.1478 11.2016 -18.5966 -1.8397 -0.0000 -0.0000 1.7694 10.1559 -23.0974 -4.0198 -7.1250 0.0000 -0.0000 -11.7596 6.9576 10.4772 0.0000 -0.0000 0.0000 76.3191 -6.0908 44.5556 -32.6333 43.0463 -13.1711 0.0000 -0.0000 -27.0737 -33.9390 -23.7760 15.1797 7.1250 -0.0000 -0.0000 -5.3455 -57.8693 1.6869
9.0759 16.5881 -1.5530 -5.8227 -2.6284 7.1373 0.0000 0.0000 0.0000 -5.9239 -11.4632 -39.5708 1.0713 6.5796 18.4756 0.1999 7.0850 -13.8358 0.4460 -4.2848 -11.8793 0.0000 0.0000 0.0000 30.2085 -0.6914 14.4801 0.0000 -0.0000 0.0000 -0.5834 4.3847 -13.6052 -0.8080 5.7366 -16.0221 1.6538 1.5999 -6.6654 3.0460 1.8914 -0.0929 2.4048 0.9437 3.5931 -13.4145 -6.3461 -20.5456 14.6090 -8.3354 20.5753 6.3091 -3.1748 11.3171 -0.0000 0.0000 0.0000 -88.3564 16.8818 27.4888 11.1051 -18.4491 -1.8090 -0.0000 -0.0000 1.7474 9.5156 -23.0267 -3.7513 -7.1250 0.0000 -0.0000 -12.1541 7.0933 10.8127 -0.0000 0.0000 0.0000 76.3923 -6.4607 44.4964 -32.9042 43.2563 -13.3564 0.0000 -0.0000 -27.0561 -34.9789 -24.8493 16.3844 7.1250 -0.0000 -0.0000 -6.4085 -59.3409 2.2505
9.1053 16.5750 -1.3935 -5.8095 -2.7054 7.1729 0.0000 0.0000 0.0000 -6.4508 -10.9376 -39.7900 1.1089 6.6904 18.8013 0.1909 6.4964 -13.0754 0.6275 -5.0689 -14.1052 0.0000 0.0000 0.0000 29.9838 -0.9087 15.0118 0.0000 0.0000 -0.0000 -0.5623 4.4520 -13.3509 -0.8019 5.7154 -15.9608 1.6534 1.6629 -6.7639 3.0707 1.9727 -0.1471 2.4407 0.9840 3.5890 -13.5650 -6.4043 -20.4745 14.5637 -8.3862 20.7481 6.3166 -3.2172 11.3807 0.0000 0.0000 0.0000 -88.4552 16.7964 27.7283 11.1038 -18.4472 -1.8086 -0.0000 -0.0000 1.8858 8.6595 -22.5911 -3.3483 -7.1250 0.0000 -0.0000 -12.6782 7.6055 11.1730 0.0000 0.0000 0.0000 76.4777 -6.7888 44.4463 -33.0614 43.3772 -13.4642 0.0000 -0.0000 -26.9069 -35.8864 -25.8179 17.4897 7.1250 -0.0000 -0.0000 -7.3764 -60.6732 2.8271
9.1413 16.5714 -1.2278 -5.5043 -2.9246 7.2997 0.0000 0.0000 0.0000 -7.4044 -10.3752 -39.8937 1.1533 6.8186 19.1790 0.2188 5.9033 -12.9382 0.6760 -5.2573 -14.6438 0.0000 0.0000 0.0000 29.3928 -0.9536 15.4570 0.0000 0.0000 -0.0000 -0.5360 4.5522 -13.0303 -0.8885 6.0083 -16.8085 1.3469 1.6707 -6.9112 2.9859 2.0107 -0.3127 2.5294 0.9991 3.4911 -13.6766 -6.2888 -20.0756 14.8084 -8.2917 20.6639 6.4472 -3.1723 11.2747 -0.0000 -0.0000 0.0000 -88.5708 17.1207 28.3306 11.2279 -18.6367 -1.8481 -0.0000 -0.0000 0.3918 8.8316 -22.8010 -3.4457 -7.1250 0.0000 -0.0000 -12.5739 7.3830 11.1324 -0.0000 -0.0000 0.0000 76.6238 -7.2262 44.6225 -33.0294 43.3526 -13.4423 0.0000 -0.0000 -26.7937 -35.9978 -25.6286 17.4443 7.1250 -0.0000 -0.0000 -7.5466 -60.4887 2.8596
